<svg width="145" height="38" viewBox="0 0 145 38" fill="none" xmlns="http://www.w3.org/2000/svg">
<path d="M99.2347 10.1419C98.5449 9.21846 97.6211 8.44484 96.4673 7.82514C95.3136 7.20543 93.9616 6.89355 92.4154 6.89355C90.7026 6.89355 89.1365 7.32694 87.7211 8.18967C86.3057 9.05239 85.1876 10.2635 84.3629 11.8188C83.5422 13.3741 83.1299 15.1644 83.1299 17.1815C83.1299 19.1985 83.5422 21.005 84.3629 22.5968C85.1836 24.1886 86.2977 25.432 87.7012 26.3191C89.1048 27.2061 90.651 27.6516 92.344 27.6516C93.8664 27.6516 95.2224 27.3357 96.4158 26.7038C97.6052 26.072 98.5449 25.2822 99.2347 24.3344V27.3276H103.342V7.22163H99.2347V10.1419ZM98.3942 20.8835C97.8352 21.9163 97.1017 22.7021 96.1977 23.2367C95.2938 23.7714 94.3184 24.0387 93.2678 24.0387C92.2171 24.0387 91.2735 23.7633 90.3576 23.2165C89.4418 22.6697 88.7043 21.8718 88.1453 20.8268C87.5863 19.7818 87.3048 18.5667 87.3048 17.1774C87.3048 15.7881 87.5823 14.5933 88.1453 13.5847C88.7043 12.5762 89.4378 11.8107 90.3418 11.2882C91.2457 10.7657 92.2211 10.5024 93.2717 10.5024C94.3224 10.5024 95.2938 10.7697 96.2017 11.3044C97.1057 11.839 97.8391 12.6167 98.3982 13.6374C98.9572 14.6581 99.2387 15.861 99.2387 17.2503C99.2387 18.6396 98.9572 19.8466 98.3982 20.8794L98.3942 20.8835Z" fill="white"/>
<path d="M64.6543 6.82031V11.0894H68.0006L69.1186 6.82031H64.6543Z" fill="white"/>
<path d="M111.462 8.13692C110.994 8.47715 110.57 8.93484 110.57 8.93484C110.154 9.38037 109.868 9.81376 109.682 10.1459V7.22559H105.61V27.3275H109.682V16.748C109.682 16.3632 109.698 13.9735 111.597 12.1954C113.211 10.6846 115.106 10.6157 115.574 10.6157V7.25394C115.423 7.24584 112.834 7.14053 111.462 8.14097V8.13692Z" fill="white"/>
<path d="M123.162 2.22363H119.055V7.22177H116.735V10.616H119.055V21.7423C119.055 23.7108 119.542 25.1365 120.518 26.0114C121.493 26.8863 122.897 27.3237 124.732 27.3237H127.948V23.8566H125.45C124.617 23.8566 124.027 23.6946 123.682 23.3624C123.337 23.0344 123.162 22.4916 123.162 21.7382V10.6119H127.948V7.21772H123.162V2.22363Z" fill="white"/>
<path d="M143.961 18.6033C143.295 17.8256 142.502 17.2343 141.586 16.8333C140.67 16.4323 139.497 16.0354 138.07 15.6465C136.999 15.3306 136.19 15.0673 135.643 14.8607C135.096 14.6542 134.632 14.3666 134.251 14.0021C133.871 13.6375 133.681 13.188 133.681 12.6533C133.681 11.9728 133.966 11.426 134.537 11.0129C135.108 10.5998 135.929 10.3932 137.003 10.3932C138.077 10.3932 138.966 10.6605 139.608 11.1952C140.25 11.7298 140.607 12.4467 140.678 13.3459H144.75C144.655 11.3531 143.922 9.77755 142.554 8.6232C141.186 7.46885 139.382 6.88965 137.146 6.88965C135.647 6.88965 134.319 7.14482 133.165 7.65517C132.011 8.16551 131.123 8.86622 130.505 9.75325C129.886 10.6403 129.577 11.6205 129.577 12.6898C129.577 14.0021 129.918 15.0592 130.596 15.8652C131.274 16.6672 132.079 17.2626 133.007 17.6514C133.934 18.0403 135.136 18.4413 136.614 18.8544C138.137 19.2918 139.251 19.6928 139.953 20.0574C140.655 20.4219 141.007 20.9808 141.007 21.7342C141.007 22.439 140.69 23.0182 140.06 23.4678C139.429 23.9173 138.541 24.1442 137.399 24.1442C136.258 24.1442 135.393 23.8606 134.668 23.2855C133.942 22.7144 133.542 22.0015 133.47 21.151H129.256C129.303 22.3661 129.684 23.4678 130.398 24.452C131.111 25.4362 132.083 26.2139 133.308 26.785C134.533 27.3561 135.921 27.6437 137.467 27.6437C139.013 27.6437 140.318 27.3885 141.447 26.8782C142.577 26.3678 143.454 25.663 144.072 24.7639C144.691 23.8647 145 22.844 145 21.6977C144.976 20.4097 144.631 19.3769 143.965 18.5952L143.961 18.6033Z" fill="white"/>
<path d="M37.1546 7.84149C35.7511 6.99091 34.1771 6.56563 32.4405 6.56563C30.9657 6.56563 29.6256 6.8775 28.4242 7.49721C27.2229 8.11691 26.2753 8.91483 25.5855 9.88692V0H21.5137V26.9956H25.5855V24.0753C26.2753 25.0231 27.211 25.8008 28.3886 26.4083C29.5661 27.0159 30.9181 27.3196 32.4405 27.3196C34.1533 27.3196 35.7194 26.8782 37.1348 25.9871C38.5502 25.1001 39.6643 23.8606 40.4731 22.2648C41.282 20.673 41.6864 18.8666 41.6864 16.8495C41.6864 14.8324 41.282 13.0381 40.4731 11.4706C39.6643 9.90312 38.5582 8.69206 37.1507 7.84149H37.1546ZM36.7066 20.4989C36.1476 21.5438 35.4101 22.3418 34.4943 22.8886C33.5784 23.4354 32.5952 23.7108 31.5485 23.7108C30.5018 23.7108 29.5542 23.4435 28.6383 22.9088C27.7225 22.3742 26.985 21.5884 26.426 20.5556C25.867 19.5227 25.5855 18.3117 25.5855 16.9264C25.5855 15.5412 25.863 14.3383 26.426 13.3135C26.985 12.2928 27.7225 11.5152 28.6383 10.9805C29.5542 10.4459 30.5256 10.1785 31.5485 10.1785C32.5714 10.1785 33.5784 10.4418 34.4943 10.9643C35.4101 11.4868 36.1476 12.2523 36.7066 13.2609C37.2657 14.2694 37.5472 15.4683 37.5472 16.8535C37.5472 18.2388 37.2657 19.4579 36.7066 20.5029V20.4989Z" fill="white"/>
<path d="M58.6559 8.16908C60.2022 9.06826 61.3916 10.2955 62.2281 11.8549C63.0607 13.4102 63.477 15.1519 63.477 17.0718C63.477 18.9916 63.0607 20.7333 62.2281 22.2886C61.3955 23.844 60.2061 25.0753 58.6559 25.9744C57.1096 26.8736 55.3334 27.3232 53.3352 27.3232C53.3273 27.3232 53.3233 27.3232 53.3193 27.3232V23.0906C53.3193 23.0906 53.3312 23.0906 53.3352 23.0906C54.7625 23.0906 55.9718 22.8233 56.959 22.2886C57.9462 21.754 58.6916 21.029 59.1911 20.1176C59.6907 19.2063 59.9405 18.214 59.9405 17.1447C59.9405 16.0754 59.6907 15.079 59.1911 14.1515C58.6916 13.228 57.9462 12.4868 56.959 11.9278C55.9718 11.3689 54.7625 11.0894 53.3352 11.0894C53.3273 11.0894 53.3233 11.0894 53.3193 11.0894V6.82031C53.3193 6.82031 53.3312 6.82031 53.3352 6.82031C55.3334 6.82031 57.1096 7.2699 58.6559 8.16908Z" fill="white"/>
<path d="M79.9742 11.9848C79.1297 10.393 77.9324 9.13338 76.3861 8.2099C75.4385 7.64285 74.3998 7.24997 73.2817 7.03125L72.1993 11.1586C73.1469 11.276 73.9835 11.5433 74.709 11.9646C75.7081 12.5478 76.4575 13.3093 76.957 14.2449C77.4566 15.1806 77.7064 16.1851 77.7064 17.2543C77.7064 18.9312 77.1275 20.3245 75.9738 21.4303C74.824 22.532 73.1905 23.0869 71.0813 23.0909H69.0672L67.957 27.3235H71.0813C73.0993 27.3235 74.8716 26.882 76.402 26.0112C77.9363 25.1363 79.1297 23.9334 79.9742 22.3983C80.8187 20.8673 81.2429 19.1499 81.2429 17.2543C81.2429 15.3588 80.8187 13.5766 79.9742 11.9848Z" fill="white"/>
<path d="M79.9742 11.9844C79.1297 10.3926 77.9324 9.13292 76.3861 8.20944C75.4386 7.64239 74.3998 7.24951 73.2817 7.03079C72.5839 6.89307 71.8505 6.82422 71.0853 6.82422H69.1227L68.0046 11.0933H71.0853C71.4738 11.0933 71.8425 11.1176 72.1993 11.1621C73.1469 11.2796 73.9835 11.5469 74.709 11.9682C75.7082 12.5514 76.4575 13.3129 76.9571 14.2485C77.4566 15.1842 77.7064 16.1886 77.7064 17.2579C77.7064 18.9348 77.1275 20.3281 75.9738 21.4339C74.824 22.5355 73.1905 23.0904 71.0813 23.0945H64.8527L64.6544 23.8519L61.2051 37.0034H65.4196L67.9571 27.3271H71.0813C73.0993 27.3271 74.8716 26.8856 76.402 26.0148C77.9363 25.1399 79.1297 23.937 79.9742 22.4019C80.8187 20.8709 81.243 19.1535 81.243 17.2579C81.243 15.3624 80.8187 13.5802 79.9742 11.9884V11.9844Z" fill="white"/>
<path d="M47.9784 8.16908C46.4321 9.06826 45.2427 10.2955 44.4061 11.8549C43.5735 13.4102 43.1572 15.1519 43.1572 17.0718C43.1572 18.9916 43.5735 20.7333 44.4061 22.2886C45.2387 23.844 46.4281 25.0753 47.9784 25.9744C49.5246 26.8736 51.3008 27.3232 53.2991 27.3232C53.307 27.3232 53.311 27.3232 53.3149 27.3232V23.0906C53.3149 23.0906 53.303 23.0906 53.2991 23.0906C51.8718 23.0906 50.6625 22.8233 49.6753 22.2886C48.6881 21.754 47.9427 21.029 47.4431 20.1176C46.9436 19.2063 46.6938 18.214 46.6938 17.1447C46.6938 16.0754 46.9436 15.079 47.4431 14.1515C47.9427 13.2239 48.6881 12.4868 49.6753 11.9278C50.6625 11.3689 51.8718 11.0894 53.2991 11.0894C53.307 11.0894 53.311 11.0894 53.3149 11.0894V6.82031C53.3149 6.82031 53.303 6.82031 53.2991 6.82031C51.3008 6.82031 49.5246 7.2699 47.9784 8.16908Z" fill="white"/>
<path d="M18.9882 6.93848V27.0282H14.9203V24.6588C14.278 25.4851 13.4375 26.1372 12.4027 26.6111C11.3679 27.0849 10.2657 27.3239 9.10006 27.3239C7.5538 27.3239 6.16614 26.9958 4.94103 26.3397C3.71592 25.6835 2.75248 24.7114 2.05072 23.4234C1.34896 22.1354 0.996094 20.5801 0.996094 18.7574V6.94253H5.02825V18.1377C5.02825 19.9361 5.46834 21.3172 6.34852 22.2772C7.22869 23.2371 8.43001 23.7191 9.95248 23.7191C11.4749 23.7191 12.6842 23.2412 13.5763 22.2772C14.4683 21.3172 14.9164 19.9361 14.9164 18.1377V6.94253H18.9842L18.9882 6.93848Z" fill="white"/>
<path d="M79.9742 11.9848C79.1297 10.393 77.9324 9.13338 76.3861 8.2099C75.4385 7.64285 74.3998 7.24997 73.2817 7.03125L72.1993 11.1586C73.1469 11.276 73.9835 11.5433 74.709 11.9646C75.7081 12.5478 76.4575 13.3093 76.957 14.2449C77.4566 15.1806 77.7064 16.1851 77.7064 17.2543C77.7064 18.9312 77.1275 20.3245 75.9738 21.4303C74.824 22.532 73.1905 23.0869 71.0813 23.0909H69.0672L67.957 27.3235H71.0813C73.0993 27.3235 74.8716 26.882 76.402 26.0112C77.9363 25.1363 79.1297 23.9334 79.9742 22.3983C80.8187 20.8673 81.2429 19.1499 81.2429 17.2543C81.2429 15.3588 80.8187 13.5766 79.9742 11.9848Z" fill="white"/>
<path d="M64.8525 23.0918L64.6543 23.8492V27.3244H67.9569L69.0671 23.0918H64.8525Z" fill="white"/>
<path d="M72.1986 11.1581L73.281 7.03079C72.5832 6.89307 71.8497 6.82422 71.0845 6.82422H69.122L68.0039 11.0933H71.0845C71.4731 11.0933 71.8418 11.1176 72.1986 11.1621V11.1581Z" fill="white"/>
<path d="M64.8525 23.0918L64.6543 23.8492V27.3244H67.9569L69.0671 23.0918H64.8525Z" fill="white"/>
<path d="M72.1986 11.1581L73.281 7.03079C72.5832 6.89307 71.8497 6.82422 71.0845 6.82422H69.122L68.0039 11.0933H71.0845C71.4731 11.0933 71.8418 11.1176 72.1986 11.1621V11.1581Z" fill="white"/>
</svg>
