<?xml version="1.0" encoding="utf-8"?>
<!-- Generator: Adobe Illustrator 28.0.0, SVG Export Plug-In . SVG Version: 6.00 Build 0)  -->
<svg version="1.1" id="Capa_1" xmlns="http://www.w3.org/2000/svg" xmlns:xlink="http://www.w3.org/1999/xlink" x="0px" y="0px"
	 viewBox="0 0 512 342.2" style="enable-background:new 0 0 512 342.2;" xml:space="preserve">
<style type="text/css">
	.st0{fill:#F0F0F0;}
	.st1{fill:#D80027;}
	.st2{fill:#0052B4;}
</style>
<rect y="0.9" class="st0" width="512" height="341.3"/>
<polygon class="st1" points="288,0.9 224,0.9 224,139.5 0,139.5 0,203.5 224,203.5 224,342.2 288,342.2 288,203.5 512,203.5 
	512,139.5 288,139.5 "/>
<g>
	<polygon class="st2" points="393.8,230.9 512,296.6 512,230.9 	"/>
	<polygon class="st2" points="311.7,230.9 512,342.2 512,310.7 368.3,230.9 	"/>
	<polygon class="st2" points="458.6,342.2 311.7,260.5 311.7,342.2 	"/>
</g>
<polygon class="st0" points="311.7,230.9 512,342.2 512,310.7 368.3,230.9 "/>
<polygon class="st1" points="311.7,230.9 512,342.2 512,310.7 368.3,230.9 "/>
<g>
	<polygon class="st2" points="90.3,230.9 0,281.1 0,230.9 	"/>
	<polygon class="st2" points="200.3,245.1 200.3,342.2 25.5,342.2 	"/>
</g>
<polygon class="st1" points="143.7,230.9 0,310.7 0,342.2 0,342.2 200.3,230.9 "/>
<g>
	<polygon class="st2" points="118.2,112.2 0,46.5 0,112.2 	"/>
	<polygon class="st2" points="200.3,112.2 0,0.9 0,32.3 143.7,112.2 	"/>
	<polygon class="st2" points="53.4,0.9 200.3,82.5 200.3,0.9 	"/>
</g>
<polygon class="st0" points="200.3,112.2 0,0.9 0,32.3 143.7,112.2 "/>
<polygon class="st1" points="200.3,112.2 0,0.9 0,32.3 143.7,112.2 "/>
<g>
	<polygon class="st2" points="421.7,112.2 512,62 512,112.2 	"/>
	<polygon class="st2" points="311.7,98 311.7,0.9 486.5,0.9 	"/>
</g>
<polygon class="st1" points="368.3,112.2 512,32.3 512,0.9 512,0.9 311.7,112.2 "/>
</svg>
