<svg width="32" height="29" viewBox="0 0 32 29" fill="none" xmlns="http://www.w3.org/2000/svg">
<path d="M11.2 28.7999C12.9673 28.7999 14.4 27.3672 14.4 25.5999C14.4 23.8326 12.9673 22.3999 11.2 22.3999C9.43269 22.3999 8 23.8326 8 25.5999C8 27.3672 9.43269 28.7999 11.2 28.7999Z" fill="white"/>
<path d="M23.9998 28.7999C25.7671 28.7999 27.1998 27.3672 27.1998 25.5999C27.1998 23.8326 25.7671 22.3999 23.9998 22.3999C22.2325 22.3999 20.7998 23.8326 20.7998 25.5999C20.7998 27.3672 22.2325 28.7999 23.9998 28.7999Z" fill="white"/>
<path d="M32 5.44V6.4L29.12 16.48C28.96 17.12 28.32 17.6 27.52 17.6H10.72C10.08 17.6 9.44 17.12 9.12 16.48L5.28 4.64C4.96 3.68 4.16 3.2 3.36 3.2H0.64C0.32 3.2 0 2.88 0 2.56V0.64C0 0.32 0.32 0 0.64 0H4.64C6.24 0 7.52 0.96 8 2.56L8.16 3.2L11.84 14.08C11.84 14.24 12.16 14.4 12.32 14.4H26.08C26.24 14.4 26.56 14.24 26.56 14.08L28.64 7.04C28.64 6.72 28.32 6.4 28 6.4H15.04C14.72 6.4 14.4 6.08 14.4 5.76V3.84C14.4 3.52 14.72 3.2 15.04 3.2H29.76C31.04 3.2 32 4.16 32 5.44Z" fill="white"/>
</svg>
