<svg width="28" height="15" viewBox="0 0 28 15" fill="none" xmlns="http://www.w3.org/2000/svg">
<path d="M13.5826 14.9823C7.97962 14.7501 3.77016 11.9341 0.112277 8.10205C-0.090938 7.8698 -0.00384564 6.96985 0.257431 6.67954C7.54416 -0.752338 15.4986 -2.49418 23.9465 4.06677C24.8175 4.73448 25.5723 5.54734 26.4142 6.24408C27.4012 7.05694 27.4593 7.72465 26.4722 8.68266C23.3659 11.6148 19.9693 13.9953 15.6437 14.7501C14.5986 14.9533 14.3954 15.0404 13.5826 14.9823ZM6.96354 3.28294C6.84742 3.19585 6.70226 3.10876 6.58614 3.02166C4.7572 4.4732 2.92826 5.89571 1.07029 7.34725C9.31503 15.9113 18.1985 15.7662 25.8916 7.23113C24.0336 5.80862 22.2047 4.41514 20.3758 3.02166C20.2596 3.10876 20.1725 3.22488 20.0564 3.31197C20.8983 6.67954 20.2016 9.55359 17.2404 11.5277C14.8889 13.0953 12.3342 13.1534 9.92468 11.6728C6.84742 9.69874 6.06359 6.76663 6.96354 3.28294ZM13.5826 1.04757C12.4794 1.04757 11.6665 1.30885 10.6214 1.54109C9.34406 1.8314 8.61829 2.49911 8.18283 3.68937C7.36997 5.86668 7.86349 8.33429 9.57631 9.87293C11.3472 11.4986 13.4084 11.9341 15.6728 11.0342C17.8211 10.1923 19.2436 8.07302 19.2726 5.77959C19.2726 3.97968 18.2855 2.15074 17.1243 1.77334C15.934 1.36691 14.7148 1.0766 13.5826 1.04757Z" fill="#4C4C4C"/>
</svg>
