<svg width="20" height="18" viewBox="0 0 20 18" fill="none" xmlns="http://www.w3.org/2000/svg">
<path d="M7 18C8.10457 18 9 17.1046 9 16C9 14.8954 8.10457 14 7 14C5.89543 14 5 14.8954 5 16C5 17.1046 5.89543 18 7 18Z" fill="#262626"/>
<path d="M15 18C16.1046 18 17 17.1046 17 16C17 14.8954 16.1046 14 15 14C13.8954 14 13 14.8954 13 16C13 17.1046 13.8954 18 15 18Z" fill="#262626"/>
<path d="M20 3.4V4L18.2 10.3C18.1 10.7 17.7 11 17.2 11H6.7C6.3 11 5.9 10.7 5.7 10.3L3.3 2.9C3.1 2.3 2.6 2 2.1 2H0.4C0.2 2 0 1.8 0 1.6V0.4C0 0.2 0.2 0 0.4 0H2.9C3.9 0 4.7 0.6 5 1.6L5.1 2L7.4 8.8C7.4 8.9 7.6 9 7.7 9H16.3C16.4 9 16.6 8.9 16.6 8.8L17.9 4.4C17.9 4.2 17.7 4 17.5 4H9.4C9.2 4 9 3.8 9 3.6V2.4C9 2.2 9.2 2 9.4 2H18.6C19.4 2 20 2.6 20 3.4Z" fill="#262626"/>
</svg>
