<svg width="24" height="20" viewBox="0 0 24 20" fill="none" xmlns="http://www.w3.org/2000/svg">
<path d="M16.0153 15.0244L12.4488 15.8388C12.4488 17.1025 12.4769 18.282 12.4207 19.5457C12.3926 20.1073 11.5502 20.1635 11.3817 19.6299C11.3817 19.5738 11.3536 19.5457 11.3536 19.4895C11.2974 18.282 11.3255 17.0744 11.3255 15.8107C9.41589 15.3614 9.69672 15.4176 7.7871 14.9682C7.28162 16.0073 6.80421 17.1025 6.21448 18.1135C6.15831 18.1977 6.10215 18.282 6.04598 18.3662C5.70899 18.8155 4.97884 18.4786 5.11926 17.9169C5.14734 17.8327 5.17542 17.7484 5.2035 17.6922C5.62474 16.6251 6.1864 15.6141 6.69188 14.5189C5.70899 13.9011 4.78227 13.3114 3.74321 12.6374C2.81648 13.6203 1.91784 14.6032 0.963033 15.5299C0.906868 15.586 0.822621 15.6422 0.738373 15.6703C0.317134 15.8669 -0.132188 15.4176 0.036308 14.9963C0.0643906 14.9121 0.120556 14.8278 0.176721 14.7436C1.0192 13.7607 1.91784 12.834 2.81648 11.8791C2.05825 10.8401 1.24386 9.88528 0.59796 8.84622C0.569877 8.81814 0.541795 8.76198 0.541795 8.73389C0.289051 8.14416 1.15961 7.66676 1.4966 8.20033C3.51855 11.3456 6.1864 13.5641 9.94946 14.1819C15.2852 15.0525 19.1606 12.7497 22.1373 8.50923C22.1373 8.50923 22.1373 8.50923 22.1373 8.48115C22.5305 7.9195 23.3729 8.48115 23.064 9.07089C23.0359 9.09897 23.0359 9.12705 23.0079 9.15513C22.4181 10.138 21.6318 10.9805 20.7893 12.0757C21.688 12.9463 22.6428 13.7888 23.5414 14.7436C23.5976 14.7997 23.6538 14.884 23.6818 14.9682C23.8503 15.3895 23.401 15.8388 22.9798 15.6422C22.8955 15.6141 22.8113 15.558 22.7551 15.5018C21.8284 14.6032 20.9578 13.6483 20.0592 12.6655C19.0201 13.3114 18.1215 13.8449 17.1667 14.4347C17.7564 15.7265 18.3462 16.9621 18.8516 18.2258C18.8797 18.3101 18.9078 18.4224 18.9078 18.5347C18.8797 18.9279 18.4304 19.1806 18.0934 18.956C18.0092 18.8998 17.9249 18.8155 17.8968 18.7313L16.0153 15.0244Z" fill="#4C4C4C"/>
<path d="M11.8028 0C15.2007 0.0280826 17.9248 1.1233 20.2837 3.14525C20.733 3.53841 20.2275 4.29664 19.6659 4.04389C19.6097 4.01581 19.5816 3.98773 19.5255 3.95965C14.4425 0.140413 9.41573 0.168495 4.3047 4.04389C4.22045 4.10006 4.13621 4.15622 4.02388 4.18431C3.57456 4.32472 3.20948 3.8754 3.40606 3.45416C3.46223 3.36991 3.51839 3.28566 3.57456 3.20142C6.01774 1.09522 8.826 0 11.8028 0Z" fill="#4C4C4C"/>
</svg>
